<?xml version="1.0" standalone="no"?>
<!DOCTYPE svg PUBLIC "-//W3C//DTD SVG 20010904//EN"
 "http://www.w3.org/TR/2001/REC-SVG-20010904/DTD/svg10.dtd">
<svg version="1.0" xmlns="http://www.w3.org/2000/svg"
 width="260.000000pt" height="260.000000pt" viewBox="0 0 260.000000 260.000000"
 preserveAspectRatio="xMidYMid meet">
<metadata>
Created by potrace 1.11, written by Peter Selinger 2001-2013
</metadata>
<g transform="translate(0.000000,260.000000) scale(0.100000,-0.100000)"
fill="#000000" stroke="none">
<path d="M0 1300 l0 -1300 1300 0 1300 0 0 1300 0 1300 -1300 0 -1300 0 0
-1300z m733 116 l242 -375 3 312 c1 172 0 327 -3 344 -7 38 -45 63 -95 63 -24
0 -31 4 -28 17 2 9 6 16 11 15 4 -1 66 -2 137 -2 109 0 130 -2 130 -15 0 -10
-10 -15 -30 -15 -19 0 -40 -9 -55 -25 l-25 -24 0 -456 0 -456 -21 3 c-16 2
-95 115 -305 437 -156 239 -286 437 -289 439 -3 3 -5 -175 -5 -395 0 -454 -3
-439 78 -450 26 -3 42 -11 42 -19 0 -11 -27 -14 -135 -14 -105 0 -135 3 -135
13 0 7 19 17 42 23 30 6 46 16 55 34 17 34 19 817 2 854 -12 24 -35 36 -76 36
-15 0 -23 6 -23 18 0 15 12 17 121 15 l120 -2 242 -375z m727 362 c0 -11 -8
-18 -20 -18 -11 0 -27 -11 -35 -24 -15 -22 -10 -41 91 -352 58 -181 109 -332
113 -337 4 -4 45 110 90 252 l83 260 -26 79 c-25 75 -58 122 -84 122 -7 0 -12
7 -12 15 0 13 23 15 150 15 83 0 153 0 158 1 4 0 8 -6 10 -14 2 -10 -10 -16
-38 -20 -50 -6 -53 -9 -53 -45 0 -36 205 -674 214 -664 17 19 189 591 189 628
0 50 -23 74 -79 81 -24 3 -41 11 -41 19 0 10 32 14 135 16 123 3 135 1 135
-14 0 -10 -4 -18 -10 -18 -5 0 -25 -14 -45 -31 -39 -34 -42 -44 -230 -646 -53
-168 -94 -283 -101 -283 -13 0 -30 44 -160 427 -49 145 -92 263 -95 263 -4 0
-148 -447 -206 -642 -9 -28 -20 -48 -29 -48 -8 0 -14 2 -14 3 0 17 -305 898
-317 916 -8 13 -28 28 -44 34 -16 6 -29 18 -29 27 0 13 22 15 150 15 136 0
150 -2 150 -17z"/>
</g>
</svg>
